<svg width="302" height="308" viewBox="0 0 302 308" fill="none" xmlns="http://www.w3.org/2000/svg">
<path d="M0 107.737H47.3546C62.5808 41.8345 109.935 0 175.47 0C241.005 0 284.127 42.2319 301.058 106.034L269.355 140.688C262.594 72.6854 228.336 34.2283 176.322 34.2283C142.49 34.2283 117.548 49.8665 100.22 76.8859C93.8853 89.5725 86.2722 95.4758 73.5742 96.3273V107.737H197.457V137.31H0V107.737ZM47.3546 199.835H0V170.261H197.457V199.835H74.0004V211.245C86.2722 212.522 93.8853 218.425 100.22 230.686C117.548 258.131 142.49 274.621 176.322 274.621C228.336 274.621 262.594 235.766 269.355 167.31L301.058 201.964C284.155 265.766 238.903 307.998 175.47 307.998C112.037 307.998 62.5808 266.589 47.3546 199.835Z" fill="black"/>
</svg>
