<svg width="310" height="303" viewBox="0 0 310 303" fill="none" xmlns="http://www.w3.org/2000/svg">
<path d="M60.5637 216.58H0.426088L0 185.02H67.0689L82.2099 114.123H21.6461L21.22 82.5622H89.1411L106.441 0H145.387L128.087 82.5622H209.871L227.171 0H266.543L249.243 82.5622H308.955L309.381 114.123H217.228V125.787H222.001C236.29 126.213 237.568 135.295 235.409 146.96L227.625 184.992H287.763L288.189 216.552H220.694L202.514 302.577H163.141L181.322 216.552H99.5381L81.3576 302.577H42.4116L60.5921 216.552L60.5637 216.58ZM101.243 125.787C115.531 126.213 116.81 135.295 114.225 146.96L106.441 184.992H188.225L203.366 114.094H96.0724V125.759H101.271L101.243 125.787Z" fill="black"/>
</svg>
