<svg width="248" height="257" viewBox="0 0 248 257" fill="none" xmlns="http://www.w3.org/2000/svg">
<path d="M159.482 147.137C161.183 170.58 169.761 185.214 190.043 199.37L247.389 239.028V188.351L160.083 128.161L247.389 67.9962V17.8964L190.043 57.5546C169.486 72.464 161.183 86.4699 159.482 109.185L159.407 110.34H145.477V0H101.912V110.365H87.4064L87.3314 109.211C85.6308 85.8926 77.3528 71.9118 56.7704 57.5796L0 17.9215V68.0213L86.7312 128.186L0 188.351V239.028L56.7454 199.37C77.903 184.461 86.181 170.304 87.3064 147.187L87.3564 145.982H101.887V256.925H145.452V145.982H159.382L159.457 147.137H159.482Z" fill="black"/>
</svg>
