<svg width="356" height="347" viewBox="0 0 356 347" fill="none" xmlns="http://www.w3.org/2000/svg">
<path d="M0.0568695 173.838C0.0568695 141.057 8.46532 112.079 22.5836 86.1667H259.299V263.808H216.149V214.253H207.74C203.934 247.403 179.873 266.844 146.268 266.844C109.225 266.844 87.4651 243.6 87.4651 211.188C87.4651 186.411 97.0099 170.403 120.673 150.962L127.15 145.626C140.132 134.557 150.444 130.754 167.999 130.385H191.662V120.48H47.7237C41.2185 136.487 37.8097 154.794 37.8097 174.235C37.8097 254.271 97.7486 313.362 177.942 313.362C258.135 313.362 317.704 254.271 317.704 173.469C317.704 92.6661 258.532 33.1782 178.708 33.1782C141.296 33.1782 109.594 46.1486 85.9312 67.8605V25.5435C113.429 8.76993 144.734 0 178.708 0C280.661 0 355.485 73.1963 355.485 173.44C355.485 273.684 281.031 346.114 177.942 346.114C74.8525 346.114 0 273.315 0 173.809L0.0568695 173.838ZM216.177 159.363V119.714L161.21 160.498C139.45 176.137 133.712 186.808 133.712 200.914C133.712 221.121 147.83 233.695 167.317 233.695C196.321 233.695 216.177 207.782 216.177 159.363Z" fill="black"/>
</svg>
