<svg width="233" height="455" viewBox="0 0 233 455" fill="none" xmlns="http://www.w3.org/2000/svg">
<path d="M0.0568695 79.8376H102.379V69.2796C91.8115 68.8539 85.8744 62.5248 85.8744 51.9668V0H123.94V79.8376H142.546C193.281 79.8376 224.16 106.46 224.16 150.394C224.16 191.377 195.838 217.999 153.114 217.999H141.694V228.983H156.068C201.747 228.983 232.171 256.031 232.171 300.789C232.171 345.547 199.616 375.574 145.501 375.574H107.435V386.132C117.577 386.132 123.911 392.461 123.911 403.445V454.135H85.846V375.546H0V79.8376H0.0568695ZM129.451 205.71C159.903 205.71 178.936 187.12 178.936 159.675C178.936 132.23 160.329 114.889 129.451 114.889H44.457V205.71H129.451ZM130.275 340.495C165.783 340.495 186.947 321.479 186.947 291.054C186.947 260.629 164.959 240.79 130.275 240.79H44.4286V340.495H130.275Z" fill="black"/>
</svg>
