<svg width="404" height="317" viewBox="0 0 404 317" fill="none" xmlns="http://www.w3.org/2000/svg">
<mask id="mask0_114_4043" style="mask-type:luminance" maskUnits="userSpaceOnUse" x="0" y="0" width="404" height="317">
<path d="M403.891 0H0V316.881H403.891V0Z" fill="white"/>
</mask>
<g mask="url(#mask0_114_4043)">
<path d="M403.891 286.202L380.626 262.873C348.185 230.319 304.182 212.013 258.305 212.013V202.618C306.995 192.827 332.419 154.511 332.419 108.817C332.419 44.2771 278.815 -0.0266113 201.974 -0.0266113C125.133 -0.0266113 71.4436 44.2487 71.4436 108.817C71.4436 154.909 96.4986 192.912 145.558 202.618V212.013C99.6802 212.013 55.6777 230.319 23.2369 262.873L0 286.202L30.5944 316.883L46.8148 300.62C79.284 268.066 123.286 249.845 169.135 249.845H181.066V212.524C168.908 209.004 158.454 203.441 149.392 196.09L145.558 192.259V192.571C128.172 176.536 118.798 153.149 118.798 125.591C118.798 74.3333 152.887 38.3454 201.974 38.3454C251.061 38.3454 285.15 74.2482 285.15 125.591C285.15 153.121 275.775 176.536 258.39 192.571V192.259L254.555 196.09C245.493 203.441 235.04 209.004 222.881 212.524V249.845H234.812C280.69 249.845 324.692 268.152 357.133 300.62L373.353 316.883L403.948 286.202H403.862H403.891Z" fill="black"/>
</g>
</svg>
