<svg width="255" height="455" viewBox="0 0 255 455" fill="none" xmlns="http://www.w3.org/2000/svg">
<path d="M131.922 382.301V392.007C142.49 392.433 148.427 398.762 148.427 409.32V454.106H110.361V381.024C51.5871 374.269 15.2262 340.04 0 293.58L35.9349 263.58C44.4002 310.041 75.6763 348.498 133.201 348.498C179.277 348.498 211.007 324.828 211.007 288.925C211.007 245.416 169.561 241.613 126.013 238.236C85.8459 234.858 11.4197 232.332 11.4197 162.627C11.4197 104.757 62.1546 71.3798 125.587 71.3798H126.866V61.6733C116.724 61.6733 110.39 55.7699 110.39 44.7862V0H148.455V72.657C200.468 79.4119 235.551 108.56 249.101 145.74L211.888 173.213C204.701 136.033 175.953 105.211 125.218 105.211C81.2441 105.211 53.3484 125.901 53.3484 159.278C53.3484 197.735 90.1355 200.261 134.11 203.638C173.425 206.59 254.186 211.245 254.186 285.604C254.186 345.178 201.747 382.357 132.405 382.357H131.979L131.922 382.301Z" fill="black"/>
</svg>
