<svg width="340" height="347" viewBox="0 0 340 347" fill="none" xmlns="http://www.w3.org/2000/svg">
<mask id="mask0_114_4021" style="mask-type:luminance" maskUnits="userSpaceOnUse" x="0" y="0" width="340" height="347">
<path d="M339.151 0H0V346.909H339.151V0Z" fill="white"/>
</mask>
<g mask="url(#mask0_114_4021)">
<path d="M101.923 152.154L162.316 212.465L169.418 205.369L165.555 201.509C156.635 192.115 158.027 182.579 166.265 174.291L235.379 105.267L258.474 128.342L145.187 241.471L78.8281 175.2L101.923 152.125V152.154Z" fill="black"/>
<path d="M284.979 54.2379C356.11 125.277 357.19 226.77 288.132 295.709C218.848 364.903 116.668 363.853 46.3318 293.609C22.896 270.194 7.35742 242.579 0 212.068L29.2592 182.835C30.5659 214.168 43.4911 244.934 69.2847 270.676C124.337 325.652 206.235 325.425 262.111 269.626C317.988 213.828 317.988 132.287 262.339 76.8296C207.03 21.5989 124.82 21.0314 69.512 76.3472C56.1038 89.7433 45.8205 104.757 39.2017 120.254L12.4423 91.503C20.2826 76.9716 30.3955 63.2348 43.0934 50.4915C111.81 -18.1354 213.763 -16.8298 284.894 54.2095H284.979V54.2379Z" fill="black"/>
</g>
</svg>
