<svg width="340" height="347" viewBox="0 0 340 347" fill="none" xmlns="http://www.w3.org/2000/svg">
<path d="M284.979 54.279C356.139 125.318 357.19 226.811 288.132 295.75C218.848 364.945 116.668 363.894 46.3318 293.65C22.896 270.235 7.35742 242.62 0 212.109L29.2592 182.876C30.566 214.21 43.4911 244.975 69.2847 270.717C124.337 325.693 206.235 325.466 262.111 269.667C317.988 213.869 317.988 132.329 262.339 76.8709C207.03 21.6402 124.82 21.0725 69.512 76.3884C56.1038 89.7845 45.8205 104.798 39.2017 120.295L12.4423 91.5442C20.2826 77.0127 30.3955 63.2761 43.0934 50.5327C111.81 -18.0941 213.763 -16.7885 284.894 54.2507H284.979V54.279Z" fill="black"/>
<path d="M233.763 113.849L183.113 164.425L238.848 220.082L217.628 241.255L162.177 185.882L155.672 192.381L159.223 195.929C167.404 204.557 166.126 213.327 158.569 220.905L125.078 254.338L103.858 233.137L156.041 181.029L100.307 125.372L121.527 104.2L176.977 159.572L183.482 153.073L179.931 149.525C171.75 140.897 173.029 132.127 180.585 124.549L212.543 92.6199L233.763 113.821V113.849Z" fill="black"/>
</svg>
