<svg width="340" height="347" viewBox="0 0 340 347" fill="none" xmlns="http://www.w3.org/2000/svg">
<path d="M284.979 54.279C356.139 125.318 357.19 226.811 288.132 295.75C218.848 364.945 116.668 363.894 46.3318 293.65C22.896 270.235 7.35742 242.62 0 212.109L29.2592 182.876C30.5659 214.21 43.491 244.975 69.2846 270.717C124.337 325.693 206.235 325.466 262.111 269.667C317.988 213.869 317.988 132.329 262.339 76.8709C207.03 21.6402 124.82 21.0725 69.5119 76.3884C56.1038 89.7845 45.8205 104.798 39.2016 120.295L12.4421 91.5442C20.2824 77.0127 30.3955 63.2761 43.0934 50.5327C111.81 -18.0941 213.763 -16.7885 284.894 54.2507H284.979V54.279Z" fill="black"/>
<path d="M250.809 159.436V189.407H85.8496V159.436H250.809Z" fill="black"/>
</svg>
