<svg width="323" height="444" viewBox="0 0 323 444" fill="none" xmlns="http://www.w3.org/2000/svg">
<mask id="mask0_114_4013" style="mask-type:luminance" maskUnits="userSpaceOnUse" x="0" y="0" width="323" height="444">
<path d="M322.988 0.000244141H0V443.719H322.988V0.000244141Z" fill="white"/>
</mask>
<g mask="url(#mask0_114_4013)">
<path d="M178.651 355.222H144.96L103.656 246.379H219.386L178.651 355.222ZM137.319 264.174L153.738 309.386C157.63 319.972 158.908 326.954 158.908 338.477V337.881H164.419V338.648C164.419 327.635 165.697 320.483 169.759 309.727L186.946 264.174H137.319Z" fill="black"/>
<path d="M258.22 157.942V92.2106C258.22 37.6611 218.762 -0.00134277 161.522 -0.00134277C104.282 -0.00134277 64.7396 37.6611 64.7396 92.2106V157.942H0V443.746H322.988V157.942H258.22ZM99.3961 92.2106C99.3961 54.2927 124.877 27.7275 161.465 27.7275C198.054 27.7275 223.535 54.2927 223.535 92.2106V157.942H99.3393V92.2106H99.4245H99.3961ZM309.466 195.435H304.552C292.791 195.69 287.536 202.587 287.536 213.173V388.6C287.536 399.186 292.706 405.998 304.552 406.339H309.466V415.165H13.5501V406.339H18.4646C30.2251 406.083 35.4804 399.186 35.4804 388.6V213.173C35.4804 202.587 30.3103 195.775 18.4646 195.435H13.5501V186.608H309.466V195.435Z" fill="black"/>
</g>
</svg>
