<svg width="274" height="333" viewBox="0 0 274 333" fill="none" xmlns="http://www.w3.org/2000/svg">
<path d="M125.076 64.6251L202.116 113.555C246.345 142.079 273.446 162.485 273.446 216.183V332.604H2.35766V295.538H227.313V282.71H198.309C178.822 282.71 165.499 278.907 148.37 267.98L71.33 219.049C27.1002 190.526 0 170.12 0 116.422V0H271.088V37.0664H46.133V49.895H75.1364C94.6236 49.895 108.429 53.6981 125.076 64.6251ZM96.5554 187.688L227.341 271.783V215.7C227.341 179.599 204.502 162.485 177.402 144.888L46.133 60.7936V116.876C46.133 152.977 69.4267 170.574 96.5554 187.688Z" fill="black"/>
</svg>
