<svg preserveAspectRatio="none" width="100%" height="100%" overflow="visible" style="display: block;" viewBox="0 0 210 215" fill="none" xmlns="http://www.w3.org/2000/svg">
<g id="Layer_1" clip-path="url(#clip0_4039_35)">
<path id="Vector" d="M56.868 92.3144L99.9193 135.344L104.975 130.291L102.222 127.539C95.8645 120.834 96.8657 114.03 102.723 108.125L151.981 58.8911L168.451 75.3526L87.7048 156.059L40.3984 108.776L56.868 92.3144Z" fill="var(--fill-0, black)"/>
<path id="Vector_2" d="M176.46 33.6237C220.513 77.6544 221.163 140.548 178.412 183.278C135.511 226.158 72.236 225.508 28.6841 181.977C14.1669 167.467 4.55542 150.355 0 131.442L18.1216 113.329C18.9225 132.743 26.9321 151.806 42.9011 167.767C76.9917 201.841 127.702 201.691 162.293 167.117C196.884 132.543 196.884 82.0074 162.443 47.6334C128.203 13.4096 77.292 13.0593 43.0513 47.3332C34.7414 55.639 28.3838 64.9455 24.2789 74.5522L7.70918 56.7398C12.565 47.7335 18.8224 39.2276 26.6818 31.322C69.2324 -11.2076 132.358 -10.4071 176.41 33.6237H176.46Z" fill="var(--fill-0, black)"/>
</g>
<defs>
<clipPath id="clip0_4039_35">
<rect width="210" height="215" fill="white"/>
</clipPath>
</defs>
</svg>
