<svg preserveAspectRatio="none" width="100%" height="100%" overflow="visible" style="display: block;" viewBox="0 0 191.273 263" fill="none" xmlns="http://www.w3.org/2000/svg">
<g id="Layer_1" clip-path="url(#clip0_4039_31)">
<path id="Vector" d="M105.791 210.539H85.836L61.3691 146.022H129.906L105.791 210.539ZM81.3237 156.584L91.0503 183.387C93.3566 189.665 94.1086 193.8 94.1086 200.625V200.276H97.3675V200.725C97.3675 194.198 98.1196 189.964 100.526 183.587L110.704 156.584H81.3237Z" fill="var(--fill-0, black)"/>
<path id="Vector_2" d="M152.918 93.6119V54.6526C152.918 22.3194 129.554 0 95.6614 0C61.7688 0 38.3548 22.3194 38.3548 54.6526V93.6119H0V263H191.273V93.6119H152.918ZM58.8609 54.6526C58.8609 32.1837 73.9521 16.4406 95.6113 16.4406C117.27 16.4406 132.362 32.1837 132.362 54.6526V93.6119H58.8107V54.6526H58.8609ZM183.251 115.832H180.343C173.374 115.981 170.265 120.066 170.265 126.344V230.318C170.265 236.595 173.324 240.631 180.343 240.83H183.251V246.061H8.02192V240.83H10.9299C17.8989 240.681 21.0074 236.595 21.0074 230.318V126.344C21.0074 120.066 17.9491 116.031 10.9299 115.832H8.02192V110.6H183.251V115.832Z" fill="var(--fill-0, black)"/>
</g>
<defs>
<clipPath id="clip0_4039_31">
<rect width="191.273" height="263" fill="white"/>
</clipPath>
</defs>
</svg>
