 <svg  version="1.0" xmlns="http://www.w3.org/2000/svg"  width="900.000000pt" height="831.000000pt" viewBox="0 0 900.000000 831.000000"  preserveAspectRatio="xMidYMid meet">  <g transform="translate(0.000000,831.000000) scale(0.100000,-0.100000)" fill="#21b52b" stroke="none"> <path d="M3005 7650 c-38 -4 -174 -8 -301 -9 l-232 -1 -60 -45 c-104 -76 -94 14 -98 -893 -2 -510 1 -813 7 -842 6 -24 18 -51 27 -60 10 -8 28 -23 40 -34 13 -11 61 -26 119 -38 117 -22 448 -39 554 -28 157 17 294 41 316 55 13 9 32 34 44 57 24 46 24 65 -1 508 -8 142 -11 380 -7 699 3 267 1 495 -3 507 -5 12 -34 41 -65 65 -83 62 -165 77 -340 59z"/> <path d="M6408 7645 c-51 -29 -33 -69 59 -133 18 -12 35 -22 39 -22 8 0 53 -36 198 -160 144 -122 323 -348 426 -535 60 -108 111 -218 117 -249 3 -17 9 -36 14 -41 4 -6 21 -51 38 -100 17 -50 39 -97 50 -106 31 -25 137 -31 444 -23 288 7 326 12 369 51 22 20 24 109 3 168 -8 22 -15 50 -15 63 0 12 -9 55 -21 95 -12 39 -26 90 -31 112 -26 99 -108 268 -163 333 -14 17 -25 33 -25 36 0 3 -32 44 -71 91 -117 139 -394 335 -507 358 -15 3 -61 15 -102 27 -81 23 -268 37 -610 46 -154 3 -190 2 -212 -11z"/> <path d="M4019 7631 c-39 -8 -83 -39 -115 -81 -18 -24 -19 -50 -19 -540 -1 -284 -4 -521 -8 -527 -4 -7 -2 -32 4 -57 13 -51 78 -120 126 -132 15 -4 165 -1 333 7 168 7 413 14 545 14 248 0 264 -2 391 -49 194 -71 332 -249 369 -476 17 -99 17 -109 0 -205 -32 -175 -121 -322 -259 -423 -68 -50 -93 -64 -211 -118 -97 -44 -315 -61 -884 -69 -212 -3 -389 -9 -394 -14 -5 -5 -13 -143 -18 -308 -10 -339 -24 -555 -39 -628 -10 -47 -9 -52 22 -102 18 -29 194 -215 393 -416 198 -201 464 -472 592 -603 127 -132 397 -406 600 -610 202 -204 406 -411 452 -460 46 -49 138 -145 205 -214 66 -69 168 -177 226 -240 131 -142 350 -369 453 -469 230 -223 202 -201 265 -201 35 0 84 10 127 25 39 13 78 25 88 25 11 0 31 6 45 14 15 8 56 25 92 37 78 27 88 33 164 84 33 22 67 45 76 50 29 18 115 112 160 176 25 34 59 78 76 98 17 20 47 70 67 111 20 42 48 86 62 100 14 13 25 27 25 32 0 5 14 39 31 76 17 37 37 81 44 97 27 61 45 135 45 180 0 26 7 74 16 107 8 33 14 76 12 97 -6 67 -18 69 -458 77 -212 4 -396 11 -408 15 -13 5 -38 26 -55 47 -18 20 -95 100 -172 177 -174 176 -408 415 -725 744 -135 140 -297 307 -360 371 -63 63 -151 154 -194 200 -44 47 -98 105 -121 130 -77 82 -135 154 -135 167 0 7 19 17 43 23 49 13 111 38 225 91 46 22 87 39 91 39 5 0 14 7 21 15 7 8 18 15 25 15 38 0 245 153 366 271 53 52 108 104 123 116 14 13 26 32 26 44 0 30 38 79 60 79 13 0 22 9 26 28 15 69 39 115 76 144 27 22 39 41 44 67 3 20 12 50 20 68 8 17 14 38 14 46 0 9 11 28 24 44 32 38 50 85 76 190 12 49 28 111 35 138 31 106 27 635 -4 730 -5 17 -18 68 -27 115 -10 47 -23 96 -29 110 -7 14 -15 39 -18 56 -9 46 -74 188 -132 289 -19 33 -39 70 -45 83 -19 45 -147 208 -221 282 -67 68 -256 227 -304 257 -11 7 -58 36 -105 65 -90 55 -228 128 -245 128 -5 0 -23 7 -40 16 -55 29 -230 84 -267 84 -20 0 -49 5 -65 11 -61 23 -1235 59 -1324 40z"/> <path d="M1765 7590 c-11 -5 -33 -9 -48 -9 -23 -1 -82 -22 -172 -62 -11 -5 -33 -18 -50 -29 -16 -11 -37 -23 -45 -27 -34 -15 -130 -97 -200 -170 -116 -120 -203 -242 -250 -350 -12 -26 -27 -61 -34 -78 -55 -122 -101 -308 -111 -441 -6 -77 -5 -83 19 -110 l24 -29 409 0 408 0 61 42 c34 23 64 49 68 58 3 9 6 279 6 600 0 517 -2 585 -16 599 -17 17 -38 19 -69 6z"/> <path d="M893 5830 c-50 -20 -51 -33 -54 -365 -2 -224 1 -316 9 -332 7 -12 29 -35 49 -50 l36 -28 231 1 c127 1 306 2 399 3 l167 1 55 53 55 53 0 287 0 286 -30 35 c-59 67 -54 66 -497 65 -219 0 -408 -4 -420 -9z"/> <path d="M7585 5830 c-127 -5 -132 -6 -190 -40 -94 -55 -99 -71 -105 -325 -5 -172 -3 -218 10 -256 18 -57 60 -105 131 -153 l54 -36 275 0 c151 0 293 3 314 7 27 4 53 19 83 49 l45 42 -6 79 c-5 59 -14 418 -16 584 0 9 -17 23 -37 32 -42 18 -320 26 -558 17z"/> <path d="M2493 5201 c-108 -5 -136 -9 -150 -24 -17 -17 -18 -98 -20 -1625 -1 -884 -3 -1851 -4 -2149 -2 -597 -6 -555 60 -626 61 -66 59 -66 488 -69 l389 -2 60 43 c32 25 74 63 92 85 l34 41 -6 125 c-9 205 -10 776 -2 1420 6 414 4 735 -4 1015 -6 226 -14 706 -17 1068 l-5 658 -42 21 c-39 20 -57 21 -391 23 -192 1 -409 0 -482 -4z"/> <path d="M1248 4570 c-351 -5 -368 -6 -387 -25 -17 -19 -19 -43 -24 -362 -4 -259 -3 -344 6 -350 12 -8 273 -30 437 -38 52 -3 145 2 205 9 61 8 138 17 172 21 98 9 149 38 181 101 7 12 12 117 13 266 2 236 2 246 -19 275 -43 60 -132 114 -184 111 -18 -1 -198 -5 -400 -8z"/> <path d="M7323 4507 c-99 -74 -98 -68 -101 -327 -2 -123 -1 -239 3 -257 7 -37 38 -58 108 -73 42 -9 99 -23 212 -55 67 -18 265 -20 300 -2 11 6 49 12 85 13 124 6 207 25 232 51 l23 25 -3 316 c-3 306 -4 318 -24 335 -18 15 -53 17 -398 17 l-378 0 -59 -43z"/> <path d="M860 3280 c-12 -7 -16 -59 -22 -285 -7 -245 -6 -280 8 -308 23 -45 72 -86 108 -91 81 -12 264 -16 496 -10 l255 7 73 72 72 71 0 243 c0 147 -4 250 -10 262 -26 48 -39 49 -517 49 -259 0 -454 -4 -463 -10z"/> <path d="M7291 3270 c-71 -11 -74 -20 -66 -205 7 -198 19 -269 52 -320 35 -54 104 -119 161 -152 l47 -28 313 -4 312 -3 35 36 c20 21 37 52 41 73 4 21 4 163 1 317 -4 215 -9 281 -19 287 -15 10 -809 8 -877 -1z"/> <path d="M4104 2110 c-143 -4 -165 -7 -184 -25 -53 -48 -53 -44 -45 -660 4 -313 11 -578 15 -590 10 -26 67 -88 101 -109 23 -15 125 -17 1065 -20 572 -2 1060 0 1084 4 32 6 54 18 77 44 54 58 48 73 -86 213 -219 227 -663 682 -883 904 -227 229 -239 239 -275 239 -21 0 -189 1 -373 3 -184 1 -408 0 -496 -3z"/> <path d="M894 2101 c-45 -8 -47 -18 -41 -166 3 -89 11 -156 21 -185 9 -25 16 -55 16 -68 0 -40 93 -256 150 -347 13 -22 31 -52 40 -66 59 -102 194 -250 315 -344 125 -98 303 -176 405 -179 l45 -1 3 639 2 640 -31 32 c-18 19 -46 35 -67 39 -36 7 -824 13 -858 6z"/> </g> </svg> 